<?xml version="1.0" encoding="UTF-8" standalone="no"?>
<!-- Created with Inkscape (http://www.inkscape.org/) -->

<svg
   version="1.1"
   id="svg2"
   width="230.73352"
   height="80.336533"
   viewBox="0 0 230.73352 80.336535"
   sodipodi:docname="ornaments.svg"
   inkscape:version="1.2.1 (9c6d41e, 2022-07-14)"
   xmlns:inkscape="http://www.inkscape.org/namespaces/inkscape"
   xmlns:sodipodi="http://sodipodi.sourceforge.net/DTD/sodipodi-0.dtd"
   xmlns="http://www.w3.org/2000/svg"
   xmlns:svg="http://www.w3.org/2000/svg">
  <defs
     id="defs6" />
  <sodipodi:namedview
     id="namedview4"
     pagecolor="#ffffff"
     bordercolor="#000000"
     borderopacity="0.25"
     inkscape:showpageshadow="2"
     inkscape:pageopacity="0.0"
     inkscape:pagecheckerboard="0"
     inkscape:deskcolor="#d1d1d1"
     showgrid="false"
     inkscape:zoom="2.0486112"
     inkscape:cx="116.17627"
     inkscape:cy="57.599998"
     inkscape:window-width="1446"
     inkscape:window-height="808"
     inkscape:window-x="0"
     inkscape:window-y="38"
     inkscape:window-maximized="0"
     inkscape:current-layer="g8" />
  <g
     inkscape:groupmode="layer"
     inkscape:label="Image"
     id="g8"
     transform="translate(-1.4507844,-1.2586795)">
    <path
       style="fill:#000000;stroke-width:0.32"
       d="m 59.115939,79.411521 c -0.72598,-1.408 -2.08429,-3.79397 -3.01846,-5.30216 -1.84919,-2.98547 -2.79307,-5.4607 -2.79307,-7.32457 0,-0.86755 0.36112,-1.73104 1.32302,-3.16354 1.36261,-2.02926 1.83883,-3.60446 1.86304,-6.1624 0.0188,-1.98031 0.8992,-3.20702 3.94374,-5.49469 1.88038,-1.41291 2.4702,-2.03977 2.4702,-2.6253 0,-2.01337 -4.01591,-10.82869 -6.57715,-14.437505 -2.70501,-3.811385 -7.21148,-7.096371 -9.96075,-7.260876 -1.01601,-0.06079 -1.19058,0.04275 -1.47524,0.875046 -0.24344,0.711792 -0.2225,0.977453 0.0851,1.08 0.92377,0.307923 1.66946,1.404797 1.51266,2.225046 -0.0869,0.454525 -9.6e-4,1.07776 0.19085,1.38497 0.24875,0.398314 0.25078,0.773766 0.007,1.308656 -0.28849,0.633168 -0.20371,0.915459 0.54387,1.810941 1.22203,1.463801 1.72253,3.444402 1.4406,5.700892 -0.17271,1.3823 -0.81251,2.95931 -2.58141,6.36275 -1.29348,2.48872 -2.5205,5.19495 -2.7267,6.01385 -0.2062,0.81889 -0.46581,1.48298 -0.57692,1.47575 -0.19073,-0.0124 -1.15663,-1.24099 -5.06384,-6.44095 -2.68806,-3.57744 -3.79453,-7.43017 -2.97475,-10.35813 0.27846,-0.99457 1.00871,-2.126981 2.26691,-3.515356 1.225,-1.351744 1.91112,-2.405894 2.01788,-3.100285 0.089,-0.578675 0.24273,-1.569104 0.34168,-2.200956 0.099,-0.631853 0.50367,-1.45298 0.89938,-1.824727 0.83533,-0.78479 2.80661,-1.666451 3.72592,-1.666451 1.19687,0 1.2666,-3.303715 0.14345,-6.796237 -0.26819,-0.833929 -0.59557,-1.582957 -0.72752,-1.664509 -0.53276,-0.329264 -6.79134,-1.169625 -7.36197,-0.988518 -0.33719,0.107021 -1.29828,1.016886 -2.13576,2.021923 -4.08804,4.905962 -4.80348,5.420295 -10.69343,7.687504 -1.848,0.711351 -4.74711,1.898451 -6.44246,2.638003 l -3.08246,1.34464 0.0425,2.032852 c 0.0398,1.905577 0.0983,2.05599 0.93469,2.402483 0.97052,0.40207 1.65738,1.380893 1.33502,1.902489 -0.11129,0.180074 -0.0343,0.529847 0.17101,0.777275 0.20534,0.24742 0.32854,0.87709 0.27377,1.39926 -0.0591,0.56346 0.12057,1.19266 0.44199,1.54783 0.79778,0.88153 1.52598,2.80306 1.52598,4.02665 0,1.95634 -0.97921,4.50234 -3.34927,8.70835 -1.28927,2.288 -2.51429,4.7 -2.72225,5.36 -0.46243,1.46759 -0.79324,1.5071 -1.48111,0.1769 -0.29099,-0.56271 -1.2249799,-1.85932 -2.0755299,-2.88137 -2.12778,-2.55678 -3.05759,-4.23785 -3.67331,-6.64126 -0.67636,-2.64009 -0.30348,-4.00323 1.67308,-6.11633 1.26878,-1.35643 1.44172,-1.71475 1.44172,-2.98704 0,-0.79514 -0.10749,-1.61964 -0.23887,-1.83222 -0.13138,-0.21258 -0.29542,-1.091875 -0.36454,-1.953987 -0.18081,-2.255446 0.87168,-3.928285 3.3814299,-5.374486 2.18919,-1.261482 2.19845,-1.317994 0.73241,-4.470202 -1.52981,-3.289338 -5.1565599,-6.211862 -8.6954299,-7.006995 -1.39727,-0.313946 -1.81481,-0.553197 -1.50539,-0.862608 0.25504,-0.255047 3.59499,0.733917 5.13924,1.521731 2.84926,1.453584 5.2159099,4.524662 6.3136399,8.192883 0.48152,1.609075 0.23515,1.636215 5.10418,-0.562262 1.848,-0.834416 4.152,-1.773719 5.12,-2.087338 4.00914,-1.298918 5.15336,-2.050675 8.71893,-5.728352 1.89141,-1.950883 3.43941,-3.655059 3.44,-3.787059 5.9e-4,-0.132 -0.25992,-0.24 -0.5789,-0.24 -0.68548,0 -4.93566,-1.426614 -8.54003,-2.866544 -1.408,-0.562489 -6.232,-2.800633 -10.72,-4.9736517 -4.488,-2.173018 -9.4919999,-4.411988 -11.1199999,-4.975488 -3.14263,-1.087757 -4.11281998,-1.888434 -1.28,-1.056356 2.84871,0.836748 8.2160599,3.136827 14.8508299,6.364048 7.10013,3.4535847 11.84997,5.4525897 15.576,6.5552777 2.11783,0.626756 2.66758,0.683751 3.54272,0.367296 0.56974,-0.20602 1.76006,-0.374582 2.64515,-0.374582 1.29602,0 1.87914,0.195491 2.99564,1.004278 l 1.38636,1.004279 3.08709,-0.202311 c 1.6979,-0.111267 5.45164,-0.6272 8.34165,-1.146515 2.89,-0.519314 6.55056,-1.114976 8.13456,-1.323693 3.20221,-0.421942 10.16099,-0.226716 12.07633,0.338797 1.07024,0.315994 1.31997,0.269209 2.3694,-0.443894 0.64518,-0.438414 1.87083,-0.97595 2.72366,-1.194524 1.36624,-0.350156 1.55061,-0.498685 1.55061,-1.249161 0,-1.230424 0.62454,-2.9113167 1.40432,-3.7796397 0.37163,-0.413811 1.63984,-1.239674 2.81826,-1.835251 1.17842,-0.595577 3.03468,-1.878872 4.12502,-2.851766 3.34838,-2.987696 5.54383,-3.282555 12.225031,-1.641876 1.79705,0.441297 3.80606,0.919114 4.46447,1.061817 l 1.1971,0.25946 -3.92895,4.026573 c -2.16093,2.214615 -4.63031,4.4375947 -5.487521,4.9399537 -3.18364,1.865734 -5.96321,2.032392 -7.94163,0.476165 l -0.80745,-0.635138 -0.53814,0.821319 c -0.30818,0.470338 -0.72872,0.748192 -0.98408,0.650198 -0.24527,-0.09412 -0.53797,-0.02221 -0.65045,0.159794 -0.13011,0.21052 -1.12343,0.258981 -2.73025,0.1332 -1.95205,-0.152805 -2.52502,-0.103945 -2.52261,0.215111 0.004,0.57811 1.43643,3.470526 2.13566,4.313566 0.81214,0.979152 10.09416,5.719114 13.40393,6.844852 6.994221,2.378915 13.474761,1.710192 23.657291,-2.441181 8.37592,-3.414829 10.78997,-4.323437 14.3694,-5.408413 4.27985,-1.29728 10.04742,-2.533791 14.4306,-3.093781 2.97206,-0.379707 3.33212,-0.505824 5.05482,-1.770515 5.46914,-4.0150957 10.89903,-5.8755377 17.1261,-5.8679057 4.91266,0.006 8.04499,1.100616 11.07552,3.8703527 0.94232,0.861217 1.86012,1.565849 2.03957,1.565849 0.17945,0 1.67126,-0.439124 3.31513,-0.97583 2.04959,-0.669169 4.11631,-1.6835197 6.57653,-3.2277777 4.03449,-2.532414 7.60307,-3.954704 9.09844,-3.626266 1.24547,0.273554 6.9059,2.578616 7.84798,3.195889 0.69509,0.455441 0.86942,0.376527 3.53851,-1.601804 1.54407,-1.144465 3.8154,-2.621603 5.0474,-3.282528 2.1613,-1.159465 2.35242,-1.201683 5.44,-1.201683 3.38433,0 4.96,0.266953 4.96,0.840333 0,0.209864 -0.22242,0.252599 -0.56,0.107596 -0.308,-0.132299 -1.856,-0.305364 -3.44,-0.384589 -2.42065,-0.121071 -3.17833,-0.03165 -4.75042,0.560679 -1.69793,0.639736 -6.299,3.518812 -8.15238,5.101273 l -0.7428,0.634222 1.15409,1.013309 c 1.45314,1.2758667 3.30336,4.3773487 5.35725,8.9802197 1.23737,2.772999 1.5601,3.823741 1.42678,4.645277 -0.0948,0.583923 -0.0373,1.06168 0.1276,1.06168 0.16493,0 0.29988,-0.438544 0.29988,-0.974544 0,-1.307366 1.0487,-2.293203 3.3589,-3.157562 2.21323,-0.828073 5.9211,-1.275296 5.9211,-0.714166 0,0.219466 -0.56365,0.366272 -1.40629,0.366272 -2.24758,0 -5.45581,1.136192 -6.40989,2.270054 -1.53301,1.821869 -1.05928,5.314116 1.48837,10.972093 1.57586,3.499779 1.7532,4.696727 1.05371,7.112128 -0.965,3.33223 -4.13174,11.64572 -4.43603,11.64572 -0.16198,0 -2.12599,-1.836 -4.36447,-4.08 -4.46116,-4.47215 -5.55624,-6.21231 -5.89024,-9.36 -0.24109,-2.27219 0.2976,-3.771256 1.69216,-4.708913 0.94035,-0.63226 1.49324,-0.731082 4.09028,-0.731082 3.58014,0 5.2224,-0.528198 5.2224,-1.67967 0,-1.319543 -0.5505,-1.52393 -2.17231,-0.806528 -1.92608,0.851993 -5.12807,1.107939 -5.96478,0.47678 -0.60105,-0.453388 -0.59478,-0.487808 0.24155,-1.324137 0.47226,-0.472256 1.32429,-1.054435 1.89341,-1.293731 l 1.03475,-0.435082 -1.21023,-0.22704 c -0.66633,-0.125005 -1.1571,-0.386474 -1.09199,-0.581789 0.18994,-0.569817 2.80078,-1.196918 4.7096,-1.131203 1.3672,0.04707 1.73704,-0.03964 1.65714,-0.388506 -0.17977,-0.784944 -0.60894,-0.998812 -1.28175,-0.638739 -1.25938,0.674 -4.53539,0.227056 -4.53539,-0.618765 0,-0.189334 0.53853,-0.569257 1.19673,-0.844272 0.93799,-0.39192 1.49686,-0.431347 2.58489,-0.182371 1.04484,0.239095 1.42543,0.220547 1.53884,-0.07499 0.3786,-0.986617 -3.58171,-9.400236 -5.6166,-11.932388 -1.75246,-2.1807007 -2.18669,-2.2558837 -4.33546,-0.750659 -3.62699,2.540711 -6.20482,3.070631 -16.49624,3.391106 -3.42769,0.106738 -6.67706,0.261041 -7.22082,0.342895 l -0.98866,0.148825 0.75871,1.533067 c 0.41729,0.843186 0.8463,2.07287 0.95337,2.73263 0.19666,1.211897 0.13166,1.447609 -1.11531,4.044566 -0.40177,0.836739 -0.61331,1.730701 -0.50494,2.133914 0.10257,0.381651 0.0491,0.939382 -0.11878,1.239401 -0.22367,0.399664 -0.0532,1.049962 0.63774,2.432608 0.77859,1.558109 0.943,2.283725 0.943,4.161933 0,1.971686 -0.15263,2.578454 -1.14544,4.553478 -1.33731,2.660342 -10.57378,13.958662 -11.41133,13.958662 -0.16483,0 -0.29989,-0.684 -0.30011,-1.52 -2.3e-4,-0.836 -0.38031,-3.032 -0.84463,-4.88 -1.12468,-4.4763 -1.41032,-10.951995 -0.61301,-13.897493 0.64565,-2.385228 0.96785,-2.893731 3.85805,-6.088806 2.80228,-3.097888 4.05195,-4.923872 3.94376,-5.762518 -0.0462,-0.358148 0.0122,-0.805504 0.12974,-0.994122 0.11756,-0.188621 -0.003,-0.761104 -0.26835,-1.272189 -0.37266,-0.718297 -0.4025,-1.103935 -0.13147,-1.69879 l 0.35063,-0.769548 -13.4163,0.141441 c -11.95807,0.126067 -13.5069,0.2008 -14.24981,0.687573 -0.45842,0.300373 -1.95056,1.875507 -3.31585,3.500294 -3.85656,4.589568 -6.49129,7.265277 -8.31323,8.442521 -0.91899,0.593805 -1.83816,1.392196 -2.0426,1.774202 -0.31566,0.589808 -0.26343,0.782246 0.34633,1.276 0.39493,0.319792 0.97965,0.58144 1.29937,0.58144 0.31973,0 0.86532,0.36103 1.21241,0.802291 0.40175,0.510739 0.81746,0.730775 1.14394,0.605488 0.93641,-0.359334 2.1357,0.196768 2.78024,1.289178 0.47546,0.805849 0.93355,1.131737 1.8231,1.296969 1.98223,0.368192 5.36782,2.355917 7.05972,4.144849 2.71349,2.86912 4.19114,6.49272 5.66296,13.88707 0.43198,2.17022 0.78541,4.15022 0.78541,4.4 0,0.75439 -3.33982,0.56069 -5.89844,-0.3421 -2.58082,-0.91062 -7.9834,-4.08752 -10.72868,-6.30884 -2.84485,-2.30187 -3.8747,-3.97978 -4.19485,-6.8345 -0.29667,-2.64543 -0.82723,-3.66196 -2.42748,-4.65097 -2.88437,-1.782638 -3.20446,-4.65932 -0.89005,-7.999013 1.11548,-1.609648 0.76192,-2.06608 -1.55761,-2.010771 -2.79205,0.06658 -5.3324,1.398199 -12.33333,6.46497 -3.3083,2.394313 -3.30993,2.396163 -2.52752,2.870894 0.76149,0.46205 2.48447,3.60339 2.48012,4.52176 -10e-4,0.25151 0.1682,0.92839 0.37641,1.5042 0.28114,0.77748 0.28696,1.24797 0.0226,1.82817 -0.30522,0.66987 -0.2456,0.88494 0.41816,1.50851 1.77499,1.66752 2.67118,5.99687 1.95149,9.42741 -0.96804,4.61438 -6.64696,19.07372 -7.46856,19.01601 -0.26398,-0.0186 -5.24542,-8.30138 -6.44764,-10.72077 -1.62808,-3.2764 -2.16255,-8.84191 -1.14178,-11.88962 0.28206,-0.84215 1.06407,-2.25154 1.7378,-3.13198 1.66801,-2.17975 1.85307,-2.81066 1.66637,-5.6811 -0.14968,-2.30145 -0.0999,-2.56902 0.68461,-3.68 0.46531,-0.65896 1.34434,-1.55811 1.95339,-1.99811 0.60905,-0.44 1.11134,-0.90123 1.11618,-1.024955 0.0191,-0.487299 -1.95789,-0.862806 -18.96165,-3.601571 -6.425691,-1.034973 -6.038501,-1.049415 -5.599871,0.208854 0.26741,0.767066 0.26325,1.05337 -0.0166,1.146666 -0.20516,0.06839 -0.37303,0.332864 -0.37303,0.587721 0,0.254858 -0.21336,0.545252 -0.47414,0.645322 -0.35209,0.13511 -0.39328,0.33303 -0.16,0.768918 0.17278,0.322836 0.31414,0.795505 0.31414,1.050365 0,0.25486 0.56216,1.02555 1.24925,1.71264 1.66222,1.66222 2.06698,3.25315 1.8588,7.30604 -0.11997,2.33534 -0.40178,3.88446 -1.04298,5.73308 -0.99632,2.8725 -4.30053,9.51875 -4.81804,9.69125 -0.18789,0.0626 -0.61652,-0.49575 -0.95251,-1.24083 -0.33598,-0.74509 -1.72652,-2.87319 -3.09008,-4.7291 -4.03278,-5.48896 -4.53313,-7.83217 -2.82088,-13.21057 0.51895,-1.6301 1.17706,-4.00153 1.46247,-5.26984 0.87189,-3.874609 2.4086,-5.416603 5.7408,-5.760516 0.97524,-0.100653 1.77317,-0.331216 1.77317,-0.512365 0,-1.035203 -3.56452,-6.433162 -6.69663,-10.141104 -2.42152,-2.866704 -3.19321,-3.38928 -7.59792,-5.145168 l -2.50545,-0.998771 -1.77104,1.948963 c -3.50785,3.860262 -4.98734,7.729946 -6.70076,17.526189 -1.24958,7.144222 -2.81881,12.130042 -4.37702,13.906722 -0.28014,0.31942 -0.48782,1.4015 -0.54186,2.82325 -0.0852,2.24031 -0.0623,2.31842 0.81153,2.77028 1.02445,0.52977 1.07824,0.72128 0.44561,1.58647 -0.32213,0.44053 -0.3564,0.73731 -0.11828,1.02422 0.1853,0.22327 0.25595,0.99527 0.15795,1.72593 -0.13853,1.03284 -0.0172,1.5756 0.55476,2.48164 0.40263,0.63782 0.96028,1.34907 1.23922,1.58057 0.27893,0.23149 0.6724,0.92161 0.87437,1.53359 0.48344,1.46482 -0.13093,3.37009 -2.23585,6.93379 -1.44287,2.44283 -3.92261,7.27181 -4.71523,9.18232 -0.31576,0.76111 -0.39607,0.67554 -1.65187,-1.76 z m 5.64938,-7.46622 c 0.89472,-1.46642 1.79474,-3.17521 2.00005,-3.79731 0.55435,-1.67969 0.19335,-3.52123 -0.9204,-4.69517 -0.52248,-0.55071 -1.05086,-1.33571 -1.17417,-1.74444 -0.163,-0.54026 -0.3692,-0.68033 -0.7553,-0.51307 -1.20353,0.52139 -4.39326,0.5224 -5.63925,0.002 -2.01404,-0.84152 -1.04052,-1.30191 2.8041,-1.32612 3.23976,-0.0204 3.26406,-0.0263 3.26406,-0.8 0,-0.85255 -0.0361,-0.85739 -3.26265,-0.43765 -1.77236,0.23057 -3.29735,9.6e-4 -3.29735,-0.49664 0,-0.6167 1.51063,-1.09931 3.97466,-1.26979 2.60689,-0.18037 3.35056,-0.62895 2.12767,-1.28342 -0.50251,-0.26893 -0.87874,-0.23647 -1.60355,0.13834 -0.97659,0.50501 -2.46477,0.63617 -3.35261,0.29548 -1.28622,-0.49356 0.13637,-1.45565 2.53383,-1.7136 l 1.6,-0.17215 0.0975,-1.52 c 0.0537,-0.836 0.0245,-1.52 -0.0647,-1.52 -0.47635,0 -4.43464,3.05604 -5.01627,3.87287 -0.4336,0.60894 -0.78332,1.79064 -0.96509,3.26106 -0.43518,3.52042 -0.55334,3.87253 -1.90955,5.69026 -1.98695,2.6631 -1.74237,4.29968 1.42236,9.51763 0.99467,1.64 2.24496,3.84645 2.77842,4.90322 l 0.96992,1.92141 1.38075,-2.82323 c 0.75942,-1.55277 2.11279,-4.02302 3.00751,-5.48944 z m 56.792301,0.34622 c 1.3827,-2.97114 3.69471,-8.93801 4.88831,-12.61585 1.54711,-4.76709 1.0134,-9.6094 -1.29853,-11.78134 -0.6943,-0.65226 -0.86625,-0.67505 -2.51342,-0.3331 -1.60788,0.3338 -2.40628,0.30294 -5.08957,-0.1967 -0.67787,-0.12622 -0.88,-0.0395 -0.88,0.37765 0,0.29783 -0.6482,1.40381 -1.44045,2.45774 -1.92233,2.55726 -2.52693,4.6992 -2.32418,8.23395 0.19247,3.3556 1.27341,6.24373 4.06893,10.87167 1.06494,1.76297 2.17879,3.71404 2.47524,4.3357 0.29645,0.62165 0.63362,1.13028 0.74927,1.13028 0.11564,0 0.72963,-1.116 1.3644,-2.48 z M 93.783159,58.454011 c 2.59826,-5.18078 3.44279,-7.91097 3.46526,-11.20249 0.0102,-1.496 -0.15176,-3.30675 -0.35995,-4.02389 -0.48188,-1.65997 -2.52012,-3.7674 -3.42016,-3.53626 -0.35414,0.0909 -1.40706,0.3829 -2.3398,0.64879 -1.96462,0.56004 -3.2641,0.26499 -3.2641,-0.74111 0,-0.50062 0.29673,-0.67281 1.46011,-0.84727 0.80306,-0.12043 2.10134,-0.14668 2.88506,-0.0583 1.49131,0.16809 2.01078,-0.0945 1.32036,-0.66753 -0.25343,-0.210319 -0.83483,-0.241737 -1.53813,-0.08312 -2.02529,0.456779 -4.27582,-0.235379 -3.1284,-0.962144 0.24255,-0.153629 0.78731,-0.281529 1.21059,-0.284224 0.75229,-0.0048 0.75642,-0.01946 0.18357,-0.652461 -0.4211,-0.465299 -0.48838,-0.745225 -0.23904,-0.994563 0.35172,-0.351715 2.50482,-0.23944 3.84588,0.200544 0.64318,0.211024 0.72,0.129821 0.72,-0.761097 0,-0.977567 -0.0303,-0.997321 -1.5322,-0.997321 -3.34232,0 -5.3482,1.915101 -6.15687,5.878235 -0.22016,1.07897 -0.81219,3.17281 -1.31561,4.65298 -1.71782,5.0507 -1.1904,7.5108 2.74649,12.81084 1.11856,1.50587 2.35047,3.27794 2.73758,3.93794 0.3871,0.66 0.7604,1.2 0.82954,1.2 0.0691,0 0.91957,-1.58288 1.88982,-3.51751 z m -30.87875,2.23751 c 0,-0.176 -0.7835,-0.32 -1.74112,-0.32 -0.95761,0 -1.83011,0.144 -1.93888,0.32 -0.12354,0.19989 0.53001,0.32 1.74111,0.32 1.07926,0 1.93889,-0.14187 1.93889,-0.32 z m -47.44499,-9.30217 c 2.65307,-5.04106 2.9469,-7.44932 1.167,-9.56462 -0.7604,-0.90367 -0.81655,-0.91776 -1.88262,-0.47233 -0.60569,0.25307 -2.12219,0.45912 -3.37907,0.45912 -1.9511599,0 -2.3026299,0.0856 -2.4353699,0.59321 -0.0853,0.32626 -0.78716,1.12152 -1.55965,1.76725 -3.0886,2.58174 -2.55426,6.00289 1.78046,11.39954 0.9188899,1.144 1.8245999,2.41274 2.0126899,2.81943 0.32226,0.69678 0.39981,0.62298 1.34506,-1.28 0.55169,-1.11069 1.87987,-3.68541 2.9515,-5.7216 z m 46.64499,6.42217 c 0.48706,-0.20929 0.29588,-0.27922 -0.8,-0.2926 -0.792,-0.01 -1.656,0.12199 -1.92,0.2926 -0.61948,0.40034 1.78836,0.40034 2.72,0 z m 100.000001,-2.03152 c 0,-1.23551 -1.3609,-7.60895 -2.12854,-9.96848 -0.9314,-2.86289 -2.37166,-5.33545 -4.03919,-6.93426 -1.62215,-1.555309 -6.15857,-4.105735 -7.30282,-4.105735 -0.36649,0 -0.83369,0.462646 -1.21181,1.2 -0.71967,1.403427 -1.69329,2.350465 -3.2001,3.112745 -0.89004,0.45026 -1.13051,0.47114 -1.3527,0.11743 -0.14863,-0.23659 -0.19181,-0.68218 -0.096,-0.99018 0.22218,-0.714011 -0.0587,-0.708875 -0.9827,0.018 l -0.73477,0.57798 0.72308,0.69594 c 0.78066,0.75136 1.12552,1.97076 1.12552,3.97975 0,3.27606 2.89513,6.32301 9.787,10.30022 3.03668,1.75243 6.5228,3.05188 8.213,3.06139 1.1491,0.007 1.2,-0.0387 1.2,-1.06478 z M 61.944409,55.251521 c 0.35779,-0.23122 0.17928,-0.31144 -0.70112,-0.3151 -0.64961,-0.003 -1.27011,0.1391 -1.37888,0.3151 -0.25508,0.41273 1.44134,0.41273 2.08,0 z m -16.36528,-7.38635 c 2.99396,-5.64668 3.25899,-8.52817 1.02997,-11.198167 -0.82004,-0.982272 -0.92559,-1.018691 -1.93379,-0.667228 -1.89509,0.660633 -4.8109,0.191856 -4.8109,-0.773456 0,-0.793655 3.03549,-1.197162 4.87702,-0.648301 0.68435,0.203968 0.92215,0.143763 1.08248,-0.274061 0.33979,-0.885472 -0.34629,-1.281824 -1.43687,-0.83009 -1.44069,0.596752 -3.89692,0.548672 -4.36053,-0.08536 -0.34738,-0.475069 -0.41653,-0.456877 -0.71683,0.188611 -0.1828,0.392921 -1.05527,1.535366 -1.93884,2.538768 -1.9488,2.213124 -2.45453,3.585284 -2.18055,5.916434 0.30249,2.57369 1.69752,5.28962 4.69881,9.14793 l 2.68269,3.44872 0.52108,-1.52872 c 0.2866,-0.8408 1.40542,-3.19659 2.48626,-5.23508 z m 178.215531,-0.6991 c 3.33914,-8.75948 3.45545,-9.752116 1.61147,-13.752683 -0.77482,-1.681004 -1.08048,-2.082883 -1.29399,-1.70136 -0.59096,1.055991 -2.26381,1.549962 -5.91337,1.746141 -3.07299,0.165187 -3.69484,0.29121 -4.26849,0.86505 -1.42316,1.423616 -1.40118,4.710752 0.0506,7.562752 0.59239,1.16377 7.80112,8.89594 8.27896,8.8801 0.0905,-0.003 0.78122,-1.623 1.53486,-3.6 z m -44.99488,0.16545 c 1.10907,-1.364 3.21553,-3.848 4.68103,-5.52 3.42761,-3.910571 4.5436,-6.167409 4.5436,-9.188363 0,-1.783888 -0.17188,-2.556202 -0.88,-3.954253 -0.65601,-1.295149 -1.03224,-1.711219 -1.4781,-1.634601 -1.08508,0.186457 -3.68883,-0.628381 -4.96732,-1.554516 l -1.25724,-0.910736 -1.64655,1.740992 c -2.00217,2.117002 -2.7826,3.797322 -3.21817,6.92896 -0.40134,2.885536 -0.056,6.355197 1.10791,11.132517 0.45025,1.848 0.81883,3.828 0.81906,4.4 2.2e-4,0.572 0.0632,1.04 0.13985,1.04 0.0767,0 1.04687,-1.116 2.15593,-2.48 z m -114.054741,0.0551 c 1.15562,-2.01275 2.19419,-5.6861 3.25314,-11.506123 1.86584,-10.2548 3.42591,-14.565251 6.48164,-17.908707 1.88948,-2.067392 1.83138,-2.218117 -1.01266,-2.626913 -4.22548,-0.607363 -8.2748,-0.244758 -18.37927,1.645809 -2.45109,0.458602 -5.92144,0.923456 -7.7119,1.033005 l -3.25538,0.199184 0.63307,1.634313 c 0.42627,1.100423 0.64576,2.487146 0.6719,4.244944 l 0.0388,2.610634 1.24201,0.199869 c 3.34773,0.538729 7.80954,3.984444 10.60566,8.190412 1.87315,2.817623 4.05774,7.431773 5.17962,10.940093 0.49099,1.5354 1.03671,2.7482 1.21271,2.69512 0.176,-0.0531 0.64428,-0.66132 1.04063,-1.35163 z m 58.266201,-0.73549 c 0.63803,-0.40444 -0.29946,-0.68052 -2.293,-0.67526 -1.89951,0.005 -3.09383,0.2648 -3.09383,0.67295 0,0.36076 4.81811,0.36283 5.38683,0.002 z m -5.54683,-0.67963 c 0.10877,-0.176 -0.0267,-0.32 -0.30111,-0.32 -0.27439,0 -0.49889,0.144 -0.49889,0.32 0,0.176 0.1355,0.32 0.30111,0.32 0.16562,0 0.39012,-0.144 0.49889,-0.32 z m 7.46226,-0.88327 c 0.1222,-0.85651 -0.0313,-0.88284 -1.09261,-0.18741 -0.61186,0.4009 -0.70617,0.59488 -0.38874,0.7996 0.68283,0.44037 1.3718,0.15565 1.48135,-0.61219 z m -1.93206,-0.60368 c 1.5048,-0.95037 -0.11215,-1.39858 -2.6502,-0.73463 -1.94919,0.5099 -3.04,0.98631 -3.04,1.32771 0,0.45861 4.82052,-0.0438 5.6902,-0.59308 z m -3.55315,-1.50343 c 0.11529,-0.11529 -0.0749,-0.20962 -0.42255,-0.20962 -0.3477,0 -0.9117,-0.21142 -1.25334,-0.46982 -0.34164,-0.2584 -0.71116,-0.4744 -0.82116,-0.48 -0.27037,-0.0138 -0.6396,1.90687 -0.43135,2.24381 0.15267,0.24703 2.44633,-0.6023 2.9284,-1.08437 z m 4.69474,-0.69987 c -0.21786,-0.56771 -0.28452,-0.57279 -1.17283,-0.0894 l -0.69896,0.38039 0.8,0.20921 c 0.98899,0.25862 1.30618,0.11058 1.07179,-0.50024 z m -1.79179,-0.55065 c 0.78926,-0.62639 0.36991,-0.8791 -1.45884,-0.8791 -1.88125,0 -3.66487,0.72933 -2.62116,1.0718 0.264,0.0866 0.696,0.22921 0.96,0.31686 0.6387,0.21206 2.61808,-0.11122 3.12,-0.50956 z M 14.163579,40.816281 c 0.83701,-0.33008 0.85549,-0.37382 0.26083,-0.61751 -1.07081,-0.4388 -2.4933,-0.32203 -3.84,0.31524 l -1.2799999,0.60571 1.9791699,0.0259 c 1.08854,0.0142 2.38454,-0.13396 2.88,-0.32934 z m 107.032611,-0.69037 c 2.04068,-0.0192 2.20136,-0.27713 0.81672,-1.31092 l -0.85115,-0.63547 -1.60805,1.096 c -1.59839,1.08941 -2.23115,1.93133 -0.92695,1.23334 0.37529,-0.20085 1.53153,-0.37318 2.56943,-0.38295 z M 10.104409,39.891521 c 0.27539,-0.17797 0.32065,-0.31228 0.10617,-0.3151 -0.20561,-0.003 -0.6016099,-0.0923 -0.8799999,-0.19913 -0.33216,-0.12746 -0.50617,-0.0174 -0.50617,0.32 0,0.57657 0.55747,0.66117 1.2799999,0.19423 z m 5.76,-0.18103 c 0,-0.0996 -0.14675,-0.45523 -0.3261,-0.79036 -0.27668,-0.51698 -0.44642,-0.55451 -1.12,-0.2476 -0.98685,0.44963 -1.01382,0.81212 -0.0739,0.99316 1.17352,0.22603 1.52,0.23624 1.52,0.0448 z m 75.76,-0.0206 c 1.29585,-0.34728 0.75705,-0.60056 -1.03957,-0.48869 -0.96824,0.0603 -1.76043,0.24028 -1.76043,0.4 0,0.32747 1.7072,0.38155 2.8,0.0887 z m -78.16,-1.25547 c 0.91823,-0.447911 0.86352,-0.461498 -1.25731,-0.31226 -1.21953,0.0858 -2.3643299,0.30304 -2.5439999,0.48272 -0.51677,0.51676 2.6869799,0.3731 3.8013099,-0.17046 z m 131.390041,-0.31839 c 0.9468,-0.489604 2.20644,-2.168823 2.20876,-2.944465 0.002,-0.720963 -1.78702,-0.444502 -2.63936,0.407827 -0.77237,0.772381 -1.30739,2.278621 -0.99112,2.790348 0.20616,0.33358 0.3281,0.31182 1.42172,-0.25371 z M 10.264409,37.651526 c 0.56712,-0.243699 0.53979,-0.277578 -0.24,-0.297507 -1.8366299,-0.04694 -0.5363299,-2.061136 1.58215,-2.450803 1.38329,-0.254436 1.68599,-0.573693 1.69295,-1.785517 0.01,-1.72105 -0.2404,-1.917293 -1.57612,-1.235859 -0.65977,0.336588 -1.65394,1.129475 -2.2092799,1.761968 -0.84296,0.96008 -1.0097,1.412374 -1.0097,2.738854 0,1.689459 0.29174,1.899799 1.7599999,1.268864 z m 129.214441,-0.72 c -0.11558,-0.601629 -0.36659,-0.88 -0.79353,-0.88 -0.60357,0 -0.60115,0.03277 0.0722,0.978426 0.80914,1.136329 0.9547,1.116469 0.72132,-0.09843 z m -124.311661,-0.0474 c 0.1359,-0.668416 -1.58223,-1.514256 -1.79278,-0.882595 -0.0774,0.232362 -0.53584,0.662669 -1.01864,0.956237 l -0.87781,0.53376 1.79322,-0.05092 c 1.35006,-0.03834 1.81863,-0.175862 1.89601,-0.556477 z M 142.7525,36.812556 c 0.74464,-0.803478 1.30804,-2.57264 1.05808,-3.322521 -0.17912,-0.537363 -2.72403,1.435757 -3.30777,2.564579 -0.2775,0.53664 -0.41817,1.115478 -0.31259,1.28631 0.37065,0.599735 1.78758,0.307549 2.56228,-0.528368 z m -21.03683,-0.03765 c 0.47781,-0.306141 2.45274,-1.68479 4.38874,-3.063667 6.17805,-4.400192 10.46734,-6.04816 13.23282,-5.084109 0.87809,0.306103 0.98046,0.261459 1.3288,-0.579523 0.2166,-0.522922 0.86266,-1.141437 1.51621,-1.451565 1.52681,-0.724518 3.60204,-2.676595 5.93685,-5.584515 1.05984,-1.32 2.73211,-3.241722 3.71615,-4.270493 l 1.78917,-1.87049 -2.08,0.214441 c -3.8082,0.392612 -11.63338,2.098091 -15.40568,3.35763 -2.04913,0.684186 -6.15313,2.249126 -9.12,3.477648 -10.49803,4.347013 -14.69956,5.491263 -20.16316,5.491263 -5.39427,0 -9.561271,-1.232298 -16.350971,-4.835437 l -3.5998,-1.910333 2.51164,3.223447 c 1.38139,1.772896 3.14531,4.478694 3.9198,6.012886 0.77449,1.534189 1.40817,2.812775 1.40817,2.841296 0,0.02851 1.728,0.289127 3.84,0.579114 5.736291,0.787625 18.333871,2.960288 20.160001,3.476931 2.13742,0.60471 1.98725,0.605952 2.97126,-0.02451 z M 12.202739,36.237689 c 0.34137,-0.249609 0.54079,-0.533705 0.44317,-0.631325 -0.26795,-0.267948 -2.5415,0.429997 -2.5415,0.780202 0,0.46329 1.39667,0.364195 2.09833,-0.148877 z m 81.335,0.260503 c -0.10633,-0.106333 -0.38233,-0.1177 -0.61333,-0.02525 -0.25528,0.10215 -0.17945,0.177977 0.19333,0.193331 0.33733,0.01389 0.52633,-0.06174 0.42,-0.168071 z m -0.95333,-0.987252 c -0.308,-0.08049 -0.812,-0.08049 -1.12,0 -0.308,0.08049 -0.056,0.146346 0.56,0.146346 0.616,0 0.868,-0.06586 0.56,-0.146346 z m -48.56,-0.419414 c -0.264,-0.170611 -0.912,-0.310198 -1.44,-0.310198 -0.528,0 -1.176,0.139587 -1.44,0.310198 -0.33909,0.219133 0.0837,0.310198 1.44,0.310198 1.35633,0 1.77908,-0.09107 1.44,-0.310198 z m 96.027731,-0.09018 c 1.0677,-0.81975 1.69132,-3.120704 0.96711,-3.568291 -0.47392,-0.292903 -2.59484,2.305792 -2.59484,3.179389 0,0.884374 0.74924,1.063385 1.62773,0.388902 z m 6.13227,-0.77223 c 0.484,-0.09767 0.88,-0.27479 0.88,-0.39359 0,-0.487248 -0.8217,-0.984 -1.62768,-0.984 -0.71325,0 -0.88402,0.165856 -1.0026,0.973744 -0.11576,0.788762 -0.0467,0.93648 0.36368,0.77759 0.27863,-0.107884 0.9026,-0.27607 1.3866,-0.373744 z M 44.305499,32.859776 c 0.55181,-0.299847 0.19023,-0.531607 -1.24353,-0.797053 -1.25309,-0.231997 -2.50579,0.415913 -2.09361,1.082838 0.24725,0.400055 2.41692,0.21425 3.33714,-0.285785 z M 143.05214,32.74007 c 0.64499,-0.471626 0.47974,-0.981475 -0.48555,-1.498083 -0.5617,-0.300611 -0.62218,-0.223018 -0.62218,0.798281 0,1.230308 0.20506,1.35985 1.10773,0.699802 z M 40.344409,31.891526 c 0.10877,-0.176 0.0453,-0.32 -0.14112,-0.32 -0.18638,0 -0.33888,0.144 -0.33888,0.32 0,0.176 0.0635,0.32 0.14111,0.32 0.0776,0 0.23011,-0.144 0.33889,-0.32 z m 5.29479,-1.102173 c -0.62837,-0.757149 -1.47235,-0.747315 -2.37329,0.02765 l -0.87719,0.754523 0.89784,0.0225 c 0.49382,0.01235 1.18585,0.137261 1.53785,0.277533 0.78421,0.312512 1.34935,-0.438099 0.81479,-1.082199 z m 94.894231,-0.415472 c -0.22192,-0.221917 -0.82902,0.228976 -0.82902,0.615712 0,0.212192 0.18361,0.187914 0.48773,-0.06449 0.26826,-0.222631 0.42184,-0.470682 0.34129,-0.551226 z m -97.930181,0.08782 c 0.53583,-0.40528 0.54782,-0.471219 0.0873,-0.48 -0.75293,-0.01434 -1.54618,0.326337 -1.54618,0.664062 0,0.437014 0.76538,0.340448 1.45884,-0.184061 z M 219.17306,30.161878 c 2.3853,-0.561206 2.87137,-1.005498 1.62346,-1.483917 -1.69299,-0.649046 -4.93211,0.310413 -4.93211,1.460941 0,0.58968 0.87419,0.59575 3.30865,0.02298 z M 42.465599,29.331526 c 1.23685,0 1.87881,-0.466592 1.87881,-1.365565 0,-0.466515 -0.1579,-0.55304 -0.72,-0.394544 -1.69096,0.476803 -2.47878,0.910583 -2.9444,1.62121 -0.666,1.016438 -0.62585,1.315965 0.0896,0.668496 0.32186,-0.29128 1.08506,-0.529597 1.696,-0.529597 z M 223.41774,28.778192 c -0.32528,-0.325284 -0.59368,0.164444 -0.32679,0.596281 0.20161,0.326215 0.27699,0.326467 0.38538,0.0013 0.0741,-0.222333 0.0478,-0.491241 -0.0586,-0.597574 z m -0.83333,-1.046666 c 0,-0.709885 -0.092,-0.733664 -1.64,-0.42385 l -1.08,0.216154 0.96,0.409414 c 1.35635,0.578448 1.76,0.532186 1.76,-0.201718 z m -3.11391,-0.849901 c -0.21665,-0.08765 -0.64865,-0.09299 -0.96,-0.01187 -0.31135,0.08113 -0.13409,0.152851 0.39391,0.159373 0.528,0.0065 0.78274,-0.05986 0.56609,-0.147517 z M 184.52289,25.51663 c -0.82776,-0.636202 -2.7365,-1.305104 -3.72418,-1.305104 -1.64742,0 1.99353,1.857309 3.7057,1.890336 l 0.8,0.01542 -0.78152,-0.600666 z m 2.11632,-0.205104 c 0.20085,-0.635629 -0.40156,-1.03672 -1.29932,-0.865104 l -0.92288,0.176422 0.7637,0.586762 c 0.7809,0.599981 1.28988,0.635549 1.4585,0.10192 z m 33.8652,-1.085824 c 0.58859,-0.239891 0.56931,-0.279427 -0.24,-0.492202 -1.04915,-0.275827 -2.58588,0.04783 -2.3142,0.487408 0.22814,0.36914 1.65368,0.371815 2.5542,0.0048 z m -38.62834,-1.179658 c -0.49212,-0.492118 -1.21166,-0.372096 -1.21166,0.202112 0,0.272029 1.30062,0.60809 1.58095,0.40849 0.0775,-0.0552 -0.0887,-0.329968 -0.36929,-0.610602 z m 3.58834,0.530874 c 0,-0.435229 -3.12684,-1.982643 -3.33283,-1.649354 -0.21005,0.339869 0.41615,1.13682 1.25283,1.594448 0.8029,0.439152 2.08,0.472864 2.08,0.05491 z m 1.58874,-0.944355 c 0.54634,-1.020855 0.3861,-1.301037 -0.74408,-1.301037 -0.60662,0 -1.56737,-0.333894 -2.20413,-0.76601 l -1.12878,-0.766009 -0.32953,0.723251 c -0.30069,0.659933 -0.22251,0.755315 0.89303,1.089539 0.67241,0.201459 1.56056,0.647911 1.97366,0.992112 0.94692,0.788995 1.13084,0.792359 1.53983,0.02816 z m 0.33126,-2.232592 c 0,-0.686362 -2.0023,-1.948445 -3.09122,-1.948445 -1.36776,0 -1.30078,0.50097 0.20321,1.52 1.05529,0.715011 2.88801,0.986902 2.88801,0.428445 z m -0.12157,-4.354426 -0.80302,-1.754019 h -1.59956 c -1.26666,0 -1.69839,0.141098 -2.07442,0.677964 -0.42189,0.602321 -0.4173,0.79869 0.0411,1.760001 0.36978,0.775443 0.72878,1.082035 1.267,1.082035 1.02791,0 2.70925,0.737901 3.29045,1.444099 0.87656,1.065095 0.79007,-1.21879 -0.12157,-3.21008 z M 83.704409,17.830412 c 0,-0.165612 -0.13078,-0.381939 -0.29062,-0.480723 -0.15983,-0.09879 -0.47506,-0.899286 -0.70049,-1.778887 -0.48321,-1.885392 -0.74572,-1.946859 -3.16526,-0.741155 l -1.72202,0.858121 1.41919,0.580664 c 0.78056,0.319366 1.9952,0.860278 2.6992,1.202028 1.47849,0.717719 1.76,0.775293 1.76,0.359952 z m -41.28,-0.60752 c 0,-0.507865 -1.63246,-1.011366 -3.27906,-1.011366 -2.22356,0 -1.62034,0.525002 1.03906,0.904326 1.144,0.163175 2.116,0.314455 2.16,0.336176 0.044,0.02173 0.08,-0.08139 0.08,-0.229136 z M 172.98441,13.613963 c 8.17692,-0.0372 11.58208,-0.237854 12.05458,-0.710348 0.12311,-0.12311 -0.32149,-0.782297 -0.98799,-1.464859 -3.60146,-3.6882267 -9.80155,-4.9004637 -16.66659,-3.2586357 -3.25421,0.778271 -8.70116,3.3062197 -10.4,4.8266807 l -1.12,1.002399 4.32,-0.178331 c 2.376,-0.09808 8.136,-0.195689 12.8,-0.216906 z M 97.898419,12.455478 c 1.41509,-0.75567 9.170551,-7.8451857 9.163511,-8.3766597 -0.006,-0.453821 -7.953671,-2.106697 -10.077521,-2.095828 -2.60718,0.01334 -3.36696,0.35221 -6.03304,2.690803 -1.03017,0.903628 -2.85545,2.137698 -4.05619,2.742379 -2.05215,1.033449 -2.98744,1.755354 -2.27421,1.755354 0.74419,0 2.22351,1.6602437 2.42198,2.7181947 0.12144,0.647298 0.39975,1.121805 0.65796,1.121805 0.35399,0 0.31177,-0.306871 -0.20205,-1.468437 -0.69693,-1.5755217 -0.61907,-2.6212337 0.26067,-3.5009747 0.49889,-0.498887 0.57236,-0.484514 1.11241,0.217624 0.55439,0.720781 0.57853,0.724615 0.58535,0.09295 0.0108,-0.995081 0.7308,-1.811759 1.37832,-1.563282 0.8299,0.318461 1.02031,1.650317 0.47828,3.3453037 -0.56789,1.775839 -0.33474,2.402385 1.14262,3.070544 1.36431,0.617034 3.41024,0.335149 5.44191,-0.749776 z m -13.26851,-0.311613 c -0.33303,-0.653214 -0.60988,-1.553214 -0.61523,-2 -0.008,-0.6527317 -0.0681,-0.7125837 -0.30664,-0.3046247 -0.41136,0.7034227 -0.92691,3.1023467 -0.71274,3.3165117 0.0967,0.09668 0.64025,0.175774 1.20795,0.175774 h 1.03217 z m 114.754501,0.868667 c 6.05395,-0.370416 8.50531,-0.972779 11.7123,-2.878015 2.72381,-1.6181857 2.78993,-1.4946537 -1.90607,-3.5608237 -2.12323,-0.934189 -3.53556,-1.358838 -4.52623,-1.360912 -1.78093,-0.0037 -4.27183,1.103494 -8.18415,3.637909 -3.10514,2.0115277 -4.10186,2.4645967 -7.73585,3.5164297 -1.276,0.369329 -2.32,0.737409 -2.32,0.817956 0,0.254719 7.63921,0.153014 12.96,-0.172544 z M 86.584409,12.197689 c 0,-0.250836 -0.42778,-0.926338 -0.95062,-1.501114 -0.81918,-0.9005497 -0.95175,-0.9565567 -0.95881,-0.405049 -0.011,0.8605 1.19911,2.801227 1.59436,2.556954 0.17329,-0.107099 0.31507,-0.399955 0.31507,-0.650791 z m 2.09163,-2.5967017 c -0.11035,-0.588203 -0.33811,-1.069461 -0.50613,-1.069461 -0.54616,0 -0.45936,2.3361697 0.12483,3.3599997 0.34143,0.59837 0.37223,0.579472 0.47356,-0.290539 0.0596,-0.511796 0.0181,-1.411796 -0.0923,-1.9999997 z m 1.17237,1.7465387 c -0.29867,-0.298667 -0.384,-0.213333 -0.384,0.384 0,0.597333 0.0853,0.682667 0.384,0.384 0.29866,-0.298667 0.29866,-0.469333 0,-0.768 z m 1.01457,-1.8888657 c 0.22841,-1.142056 -0.0553,-1.86158 -0.47367,-1.201298 -0.36061,0.569117 -0.36424,2.1941637 -0.005,2.1941637 0.154,0 0.36935,-0.44679 0.47857,-0.9928657 z"
       id="path177" />
  </g>
</svg>
